<?xml version="1.0" standalone="no"?>
<!DOCTYPE svg PUBLIC "-//W3C//DTD SVG 20010904//EN"
 "http://www.w3.org/TR/2001/REC-SVG-20010904/DTD/svg10.dtd">
<svg version="1.0" xmlns="http://www.w3.org/2000/svg"
 width="425.000000pt" height="409.000000pt" viewBox="0 0 425.000000 409.000000"
 preserveAspectRatio="xMidYMid meet">

<g transform="translate(0.000000,409.000000) scale(0.100000,-0.100000)"
fill="#000000" stroke="none">
<path d="M0 2045 l0 -2045 2125 0 2125 0 0 2045 0 2045 -2125 0 -2125 0 0
-2045z m1934 1883 c-13 -41 -24 -92 -24 -115 l0 -23 438 0 c403 0 440 -2 478
-19 49 -22 101 -83 114 -133 7 -24 9 -305 8 -775 l-3 -738 -28 -47 c-18 -31
-44 -57 -75 -75 -45 -27 -52 -28 -213 -31 l-166 -4 -82 -80 c-46 -44 -85 -78
-87 -75 -2 2 2 31 10 63 8 32 17 76 19 96 l6 37 -65 -44 c-128 -88 -259 -99
-395 -32 l-74 36 -255 3 c-251 3 -256 3 -300 28 -24 14 -58 45 -75 68 l-30 44
-3 746 c-2 520 0 758 8 785 14 47 62 102 111 128 35 17 60 19 272 19 l235 0
33 44 c33 43 122 116 141 116 5 0 6 -10 2 -22z m1682 -2044 c77 -51 69 -170
-14 -210 -104 -49 -210 63 -157 166 29 56 118 78 171 44z m-2478 -589 c3 -449
-1 -513 -40 -588 -92 -182 -321 -240 -496 -128 -32 21 -62 45 -65 53 -4 11 15
30 58 62 34 25 65 46 68 46 4 0 23 -11 43 -25 43 -29 118 -34 163 -10 40 20
79 69 91 115 6 24 9 168 8 387 l-3 348 -107 3 -108 3 0 85 0 84 193 -2 192 -3
3 -430z m767 350 l0 -80 -207 -3 -208 -2 0 -60 0 -60 180 0 180 0 0 -85 0 -85
-180 0 -180 0 0 -130 0 -130 200 0 200 0 0 -85 0 -85 -282 2 -283 3 -3 430
c-1 237 0 436 3 443 3 10 67 12 292 10 l288 -3 0 -80z m384 -217 c63 -164 117
-298 121 -298 4 0 59 134 122 298 l116 297 87 3 c87 3 88 3 82 -20 -4 -13 -80
-213 -169 -446 l-163 -423 -75 3 -75 3 -37 95 c-135 346 -298 772 -298 781 0
6 34 9 88 7 l87 -3 114 -297z m949 225 c17 -43 94 -242 171 -442 78 -200 141
-366 141 -367 0 -2 -40 -4 -88 -4 l-89 0 -45 118 -45 117 -148 0 -148 0 -45
-117 -45 -118 -90 0 c-67 0 -88 3 -84 13 2 6 75 194 160 417 86 223 161 417
166 433 10 26 13 27 85 27 l75 0 29 -77z m-131 -849 c2 -6 -10 -14 -27 -17
-24 -5 -30 -12 -30 -32 0 -23 4 -25 40 -25 38 0 40 2 40 30 0 32 36 64 66 58
28 -5 29 -28 1 -28 -24 0 -37 -16 -37 -46 0 -8 10 -14 26 -14 31 0 28 -23 -4
-28 -21 -3 -22 -9 -22 -88 0 -68 -3 -84 -15 -84 -12 0 -15 16 -15 85 l0 85
-40 0 -40 0 0 -85 c0 -69 -3 -85 -15 -85 -12 0 -15 16 -15 85 0 69 -3 85 -15
85 -8 0 -15 7 -15 15 0 8 6 15 14 15 9 0 16 12 18 32 2 23 11 36 28 45 28 15
52 13 57 -3z m-334 -88 c5 -11 -4 -16 -36 -18 l-42 -3 -3 -59 c-2 -32 2 -64 7
-69 6 -6 27 -10 46 -9 34 3 46 -10 24 -23 -17 -11 -79 -8 -94 5 -22 18 -21
153 1 174 20 20 90 21 97 2z m171 -2 c20 -20 22 -142 3 -168 -20 -27 -96 -24
-119 5 -23 28 -25 125 -2 157 19 27 93 31 118 6z m410 -6 c34 -48 8 -88 -55
-88 -38 0 -40 -2 -37 -27 3 -26 7 -28 51 -31 73 -5 61 -33 -15 -34 -58 -1 -78
26 -78 101 0 77 18 101 75 101 34 0 47 -5 59 -22z m180 6 c19 -18 21 -65 4
-82 -7 -7 -32 -12 -56 -12 -41 0 -43 -1 -40 -27 3 -26 7 -28 51 -31 33 -2 47
-7 47 -18 0 -21 -92 -22 -117 -2 -20 16 -17 152 3 172 20 21 88 21 108 0z"/>
<path d="M1846 3821 c-48 -76 -61 -142 -60 -311 0 -124 5 -172 22 -243 52
-208 116 -280 392 -440 194 -112 260 -229 260 -457 0 -108 -20 -222 -58 -335
-11 -33 -19 -61 -17 -63 5 -5 70 113 95 173 69 162 66 351 -8 489 -15 28 -56
80 -92 116 -52 53 -90 79 -188 130 -159 81 -219 135 -272 244 -59 120 -83 245
-83 426 1 107 6 167 20 228 11 45 18 82 17 82 -2 0 -15 -17 -28 -39z"/>
<path d="M1262 3710 c-18 -11 -41 -34 -52 -52 -19 -32 -20 -52 -20 -774 l0
-741 23 -33 c49 -74 54 -75 299 -78 l221 -3 -58 60 c-179 186 -391 613 -446
896 -8 41 -14 131 -13 220 0 129 3 159 23 215 42 121 105 210 201 283 l35 27
-90 0 c-72 0 -96 -4 -123 -20z"/>
<path d="M1590 3714 c-30 -8 -73 -26 -96 -39 -90 -53 -176 -180 -209 -310 -24
-96 -20 -278 10 -410 47 -206 156 -457 286 -655 82 -124 232 -274 314 -315 83
-40 177 -46 260 -14 77 29 179 127 224 216 17 34 31 65 31 68 0 2 -28 -28 -63
-68 -201 -230 -368 -245 -566 -48 -87 86 -144 163 -223 301 -110 192 -193 409
-222 579 -22 131 -21 154 11 192 l28 33 -28 -18 -27 -18 0 38 c1 98 57 242
125 321 53 63 141 102 246 111 77 6 84 9 87 30 3 21 0 22 -65 21 -37 0 -93 -7
-123 -15z"/>
<path d="M1883 3693 c-4 -21 -8 -108 -8 -193 1 -118 5 -170 19 -220 48 -173
129 -266 330 -375 209 -114 298 -212 341 -375 31 -116 12 -263 -51 -415 -19
-43 -34 -81 -34 -83 0 -2 69 -2 154 0 168 3 182 8 230 72 21 27 21 38 23 769
l3 742 -23 39 c-44 77 -35 76 -534 76 l-442 0 -8 -37z"/>
<path d="M1485 3236 c79 -25 136 -53 260 -127 47 -27 90 -47 95 -44 64 40
-249 197 -386 194 -37 -1 -35 -2 31 -23z"/>
<path d="M1388 3243 c7 -3 16 -2 19 1 4 3 -2 6 -13 5 -11 0 -14 -3 -6 -6z"/>
<path d="M1565 3074 c-95 -41 -148 -55 -177 -50 -16 3 -28 3 -28 0 0 -17 71
-89 105 -106 46 -24 182 -35 235 -20 l35 10 -32 1 -32 1 24 25 c14 13 25 33
25 45 0 28 11 25 64 -15 55 -42 59 -34 11 22 -47 55 -79 67 -172 61 -67 -5
-74 -3 -57 9 10 7 36 16 56 20 21 3 41 10 44 14 10 17 -42 8 -101 -17z m64
-86 c-17 -34 -19 -34 -19 -5 0 18 5 27 15 27 13 0 14 -4 4 -22z m-56 -4 c-3
-8 4 -29 17 -46 l22 -30 -23 7 c-35 11 -77 33 -84 45 -4 6 9 17 27 25 43 18
49 18 41 -1z"/>
<path d="M2100 2529 c0 -5 5 -7 10 -4 6 3 10 8 10 11 0 2 -4 4 -10 4 -5 0 -10
-5 -10 -11z"/>
<path d="M1981 2526 c2 -2 15 -9 29 -15 24 -11 24 -11 6 3 -16 13 -49 24 -35
12z"/>
<path d="M2255 2379 c-6 -12 -30 -30 -55 -41 -30 -12 -35 -17 -16 -13 59 12
96 33 96 54 0 27 -13 27 -25 0z"/>
<path d="M1790 2371 c0 -19 63 -52 98 -50 9 0 -3 8 -27 16 -26 9 -46 23 -48
34 -7 25 -23 25 -23 0z"/>
<path d="M2058 2383 c7 -3 16 -2 19 1 4 3 -2 6 -13 5 -11 0 -14 -3 -6 -6z"/>
<path d="M1918 2313 c7 -3 16 -2 19 1 4 3 -2 6 -13 5 -11 0 -14 -3 -6 -6z"/>
<path d="M2128 2313 c7 -3 16 -2 19 1 4 3 -2 6 -13 5 -11 0 -14 -3 -6 -6z"/>
<path d="M1999 2299 c26 -5 58 -5 75 0 25 7 16 9 -44 9 -70 0 -72 -1 -31 -9z"/>
<path d="M1930 2213 c0 -11 74 -33 110 -33 34 0 100 22 100 34 0 1 -24 -3 -53
-11 -44 -11 -61 -11 -105 1 -29 7 -52 11 -52 9z"/>
<path d="M3498 1864 c-17 -9 -32 -28 -39 -53 -15 -49 8 -96 55 -116 109 -46
188 108 87 168 -35 21 -67 21 -103 1z m93 -36 c12 -18 11 -24 -5 -40 -11 -12
-11 -17 0 -33 30 -40 4 -50 -28 -10 -11 14 -24 25 -29 25 -5 0 -9 -11 -9 -25
0 -16 -6 -25 -15 -25 -12 0 -15 13 -15 58 0 32 3 62 8 66 11 12 84 -1 93 -16z"/>
<path d="M3520 1804 c0 -10 7 -14 22 -12 32 5 35 28 4 28 -17 0 -26 -5 -26
-16z"/>
<path d="M3097 1356 c-21 -53 -37 -98 -37 -101 0 -3 34 -5 75 -5 41 0 75 2 75
4 0 8 -60 168 -69 183 -5 10 -19 -15 -44 -81z"/>
<path d="M2873 700 c-21 -8 -23 -16 -23 -74 0 -55 3 -66 20 -71 10 -3 28 -1
40 5 16 9 20 21 20 65 0 35 -5 59 -16 69 -8 9 -16 16 -17 15 -1 0 -12 -4 -24
-9z"/>
<path d="M3278 699 c-10 -5 -18 -19 -18 -29 0 -16 7 -20 35 -20 30 0 35 3 35
24 0 13 -7 27 -16 30 -19 7 -15 8 -36 -5z"/>
<path d="M3447 694 c-4 -4 -7 -16 -7 -26 0 -16 6 -19 38 -16 29 2 37 7 37 23
0 15 -8 21 -30 23 -17 2 -34 0 -38 -4z"/>
</g>
</svg>
